<?xml version="1.0" encoding="utf-8"?>
<!-- Generator: Adobe Illustrator 26.3.1, SVG Export Plug-In . SVG Version: 6.00 Build 0)  -->
<svg version="1.1" id="a" xmlns="http://www.w3.org/2000/svg" xmlns:xlink="http://www.w3.org/1999/xlink" x="0px" y="0px"
	 viewBox="0 0 397.5 155.7" style="enable-background:new 0 0 397.5 155.7;" xml:space="preserve">
<style type="text/css">
	.st0{fill:#292F36;}
	.st1{fill:#FFD100;}
</style>
<path class="st0" d="M130.4,91.3v-1.6c0-18.4-10.8-29.7-26.5-29.7c-6.7,0-13.2,2.8-18.2,7.7c-4.9,4.9-7.5,11.2-7.5,18.1
	s2.5,13.2,7.3,18.3c5.1,5.3,11.1,7.9,18.7,7.9c11,0,19.2-5.2,24-15.5h-16c-2.2,1.9-4.6,2.8-7.5,2.8c-6.3,0-10.1-2.8-11.4-8
	L130.4,91.3L130.4,91.3z M115.7,81H92.7c1-4.7,5.3-7.8,11.4-7.8S114,76,115.7,81"/>
<path class="st0" d="M185.3,91.3v-1.6c0-18.4-10.8-29.7-26.5-29.7c-6.7,0-13.2,2.8-18.2,7.7c-4.9,4.9-7.5,11.2-7.5,18.1
	s2.5,13.2,7.3,18.3c5.1,5.3,11.1,7.9,18.7,7.9c11,0,19.2-5.2,24-15.5h-16c-2.2,1.9-4.6,2.8-7.5,2.8c-6.3,0-10.1-2.8-11.4-8
	L185.3,91.3L185.3,91.3z M170.7,81h-23.1c1-4.7,5.3-7.8,11.4-7.8S168.9,76,170.7,81"/>
<path class="st0" d="M57.6,72.6v38.3h14.2V72.6h5.8v-11h-5.8v-1.2c0-4.5,1-6,5.4-6h0.4v-9.9c-0.8,0-1.6-0.1-2.3-0.1
	c-12.1,0-17.8,4.8-17.8,15.3c0,0.5,0.1,1.2,0.1,1.8h-5.3v11L57.6,72.6L57.6,72.6z"/>
<path class="st0" d="M190.8,72.6v38.3h14.2V72.6h5.8v-11h-5.8v-1.2c0-4.5,1-6,5.4-6h0.4v-9.9c-0.8,0-1.6-0.1-2.3-0.1
	c-12.1,0-17.8,4.8-17.8,15.3c0,0.5,0.1,1.2,0.1,1.8h-5.3v11L190.8,72.6L190.8,72.6z"/>
<path class="st0" d="M262.9,85.9c0-6.7-2.9-13.5-8.1-18.5c-5-4.7-11.1-7.2-18.3-7.2c-6.7,0-13.2,2.8-18.2,7.7
	c-4.9,4.9-7.5,11.2-7.5,18.1s2.5,13.2,7.3,18.2c5.1,5.3,11.1,7.9,18.6,7.9s13.7-2.7,18.8-7.7C260.4,99.5,262.9,93.4,262.9,85.9
	 M248.5,86.3c0,6.7-5.2,12.1-11.7,12.1s-11.7-5.4-11.7-12.1s5.2-12.2,11.7-12.2S248.5,79.5,248.5,86.3"/>
<path class="st1" d="M285.2,77.9c-7-0.4-12.6-6-13-13h30.6v-0.3c0-12-7.7-20-18.3-20c-11.2,0-18.8,8.2-18.8,18.9
	c0,10.1,7.9,18.9,18.6,18.9c7.8,0,14-4.3,17.3-12.3h-3.1c-2.2,4.7-7,7.9-12.5,7.9C285.8,77.9,285.5,77.9,285.2,77.9"/>
<path class="st1" d="M324,77.9c7-0.4,12.6-6,13-13h-30.6v-0.3c0-12,7.7-20,18.3-20c11.2,0,18.8,8.2,18.8,18.9
	c0,10.1-7.9,18.9-18.6,18.9c-7.8,0-14-4.3-17.3-12.3h3.1c2.2,4.7,7,7.9,12.5,7.9C323.5,77.9,323.8,77.9,324,77.9"/>
</svg>
