    <svg
        xmlns="http://www.w3.org/2000/svg"
        width="11"
        height="11"
        fill="none"
        viewBox="0 0 18 18"
        role="img"
        id="merchant-rating-star-filled-3-svg"
        font-size="11"
    >
        <path
            id="merchant-rating-star-filled-3-path-1"
            fill="#FFFFFF"
            d="m6.342 6.058-5.94.461c-.387.03-.544.536-.248.797l3.285 2.918C5.166 9.7 6.367 7.992 6.34 6.056z"
        ></path>
        <path
            id="merchant-rating-star-filled-3-path-2"
            fill="#FFFFFF"
            d="m17.599 6.528-5.945-.462L9.4.282a.425.425 0 0 0-.8 0L7.544 2.989c.38.737.614 1.584.676 2.507.178 2.56-1.252 4.97-3.529 5.861l.012.01-1.417 6.071c-.092.394.319.706.647.493L9 14.64l5.068 3.29c.328.213.739-.1.647-.493l-1.417-6.07 4.55-4.041c.295-.263.138-.768-.248-.797z"
        ></path>
    </svg>